<?xml version="1.0" standalone="no"?>
<!DOCTYPE svg PUBLIC "-//W3C//DTD SVG 20010904//EN"
 "http://www.w3.org/TR/2001/REC-SVG-20010904/DTD/svg10.dtd">
<svg version="1.0" xmlns="http://www.w3.org/2000/svg"
 width="1272.000000pt" height="1272.000000pt" viewBox="0 0 1272.000000 1272.000000"
 preserveAspectRatio="xMidYMid meet">
<metadata>
Created by potrace 1.11, written by Peter Selinger 2001-2013
</metadata>
<g transform="translate(0.000000,1272.000000) scale(0.100000,-0.100000)"
fill="#000000" stroke="none">
<path d="M18 11868 c11 -18 37 -62 57 -98 21 -36 45 -78 55 -95 53 -92 326
-567 348 -605 14 -25 36 -62 49 -82 12 -21 23 -39 23 -42 0 -2 25 -45 55 -95
30 -51 55 -93 55 -96 0 -2 19 -36 43 -77 24 -40 55 -93 69 -118 14 -25 76
-133 138 -240 62 -107 155 -269 208 -360 52 -91 129 -223 170 -295 77 -133
211 -366 242 -420 73 -128 445 -773 460 -798 10 -18 26 -45 34 -60 17 -32 191
-333 281 -487 34 -58 132 -229 219 -380 87 -151 163 -284 169 -295 44 -72 58
-98 92 -160 21 -38 44 -77 51 -86 8 -8 14 -19 14 -22 0 -4 28 -55 63 -114 60
-102 88 -151 134 -233 11 -19 53 -91 93 -160 40 -69 88 -152 107 -185 18 -33
38 -67 43 -75 6 -8 60 -103 121 -210 62 -107 120 -208 130 -225 10 -16 28 -48
40 -70 17 -32 123 -216 169 -295 5 -8 54 -94 110 -190 56 -96 105 -182 110
-190 9 -14 38 -65 92 -161 14 -24 85 -147 158 -274 73 -126 141 -244 151 -262
10 -17 29 -50 43 -72 15 -22 26 -42 26 -45 0 -4 133 -236 167 -288 12 -21 23
-39 23 -42 0 -2 63 -114 141 -248 78 -133 151 -261 164 -283 12 -22 39 -69 60
-105 21 -36 46 -81 57 -100 11 -19 44 -75 73 -125 29 -49 64 -110 77 -135 14
-25 58 -101 98 -170 40 -69 81 -141 92 -160 53 -93 339 -588 395 -683 34 -60
63 -113 63 -118 0 -5 5 -9 11 -9 5 0 8 -4 4 -9 -3 -5 -1 -12 4 -15 5 -3 35
-52 66 -108 32 -57 65 -111 73 -120 8 -10 12 -18 7 -18 -4 0 -3 -6 3 -12 9
-12 115 -191 166 -281 96 -171 200 -347 205 -347 3 0 28 39 55 88 27 48 64
112 81 142 76 128 185 322 185 327 0 3 8 17 19 31 10 15 30 48 44 74 15 26 80
141 146 255 65 115 128 224 139 243 11 19 61 107 112 195 51 88 108 189 128
225 33 61 61 109 89 155 6 11 54 93 105 183 114 198 158 276 186 324 32 55 55
95 92 163 19 33 41 71 50 85 10 14 33 53 51 88 19 35 39 71 44 80 6 9 37 64
70 122 33 57 65 114 72 125 7 11 15 27 19 35 4 8 22 39 41 68 18 29 33 54 33
57 0 3 96 173 150 265 5 8 73 127 152 265 79 137 148 259 155 270 7 11 15 26
19 33 4 8 69 122 145 254 77 132 139 243 139 245 0 3 8 17 18 31 11 15 33 52
49 82 17 30 74 131 127 224 53 92 107 187 120 210 13 22 83 145 156 271 73
127 146 255 163 285 17 30 48 84 69 119 21 34 38 64 38 65 0 2 32 59 71 127
39 68 83 144 97 168 14 25 38 67 53 93 16 27 29 53 29 58 0 6 5 10 10 10 6 0
10 5 10 10 0 6 25 54 56 108 88 151 564 982 588 1025 12 21 26 46 31 55 6 9
37 64 70 122 33 57 65 112 70 122 61 107 142 247 151 263 6 11 34 60 63 108
28 49 51 90 51 92 0 1 25 44 55 94 30 51 55 94 55 96 0 2 13 26 29 53 15 26
39 68 53 93 14 24 48 84 77 132 28 49 51 93 51 98 0 5 5 9 10 9 6 0 10 4 10 9
0 8 148 273 190 341 5 8 28 49 52 90 24 41 52 90 63 110 11 19 77 133 145 253
69 120 132 231 141 245 9 15 27 47 41 72 14 25 51 90 83 145 32 55 69 120 83
145 14 25 77 135 140 245 63 110 128 225 145 255 17 30 38 67 49 82 10 14 18
29 18 31 0 3 39 72 86 154 101 173 134 233 134 244 0 4 -397 8 -882 9 -486 1
-1513 3 -2283 5 -770 2 -2388 6 -3595 10 -1207 3 -3040 7 -4073 10 l-1879 5
20 -32z m5952 -2143 c723 -3 1617 -8 1985 -10 369 -2 734 -4 813 -4 l144 -1
-20 -32 c-18 -29 -269 -471 -326 -573 -13 -22 -52 -91 -87 -153 -73 -130 -92
-164 -139 -247 -18 -33 -65 -116 -105 -185 -39 -69 -87 -152 -105 -185 -18
-33 -60 -107 -93 -165 -33 -58 -71 -125 -85 -150 -13 -25 -32 -58 -42 -75 -10
-16 -29 -50 -42 -75 -14 -25 -61 -108 -105 -185 -44 -77 -89 -156 -100 -175
-39 -70 -98 -175 -108 -192 -5 -9 -19 -34 -31 -55 -12 -21 -70 -123 -129 -228
-60 -104 -122 -215 -138 -245 -17 -30 -41 -72 -54 -92 -13 -21 -23 -39 -23
-42 0 -2 -29 -54 -65 -115 -36 -62 -65 -113 -65 -115 0 -2 -23 -43 -51 -92
-53 -92 -290 -509 -329 -579 -59 -105 -208 -368 -249 -439 -25 -43 -47 -72
-49 -65 -3 8 -11 22 -20 32 -8 9 -12 17 -8 17 4 0 -7 20 -24 44 -16 25 -30 47
-30 49 0 4 -57 104 -201 355 -38 64 -62 108 -87 152 -13 25 -28 50 -32 55 -4
6 -20 33 -35 60 -15 28 -88 156 -163 285 -74 129 -151 264 -170 300 -19 36
-40 72 -47 80 -7 8 -15 22 -18 30 -4 8 -20 38 -36 65 -17 28 -44 75 -61 105
-31 57 -55 98 -119 210 -85 145 -161 278 -191 335 -18 33 -39 67 -46 76 -8 8
-14 18 -14 22 0 3 -28 55 -63 115 -35 60 -67 115 -70 123 -4 8 -11 21 -17 29
-5 8 -39 67 -75 130 -36 63 -70 122 -75 130 -6 8 -18 31 -28 50 -10 19 -30 54
-45 77 -15 24 -27 45 -27 48 0 2 -18 34 -40 70 -22 36 -40 67 -40 69 0 2 -28
52 -63 112 -35 60 -66 116 -70 124 -4 8 -16 29 -26 45 -16 26 -40 68 -120 207
-10 18 -125 219 -256 447 -130 228 -239 419 -241 425 -4 9 100 12 418 10 233
-1 1015 -5 1738 -9z"/>
</g>
</svg>
