<?xml version="1.0" standalone="no"?>
<!DOCTYPE svg PUBLIC "-//W3C//DTD SVG 20010904//EN"
 "http://www.w3.org/TR/2001/REC-SVG-20010904/DTD/svg10.dtd">
<svg version="1.0" xmlns="http://www.w3.org/2000/svg"
 width="1420.000000pt" height="1420.000000pt" viewBox="0 0 1420.000000 1420.000000"
 preserveAspectRatio="xMidYMid meet">
<metadata>
Created by potrace 1.11, written by Peter Selinger 2001-2013
</metadata>
<g transform="translate(0.000000,1420.000000) scale(0.100000,-0.100000)"
fill="#000000" stroke="none">
<path d="M712 12651 c17 -31 58 -100 90 -154 32 -55 58 -100 58 -102 0 -2 28
-50 61 -107 34 -57 74 -125 89 -153 15 -27 103 -180 195 -340 92 -159 181
-315 198 -345 16 -30 33 -59 37 -65 9 -11 103 -175 114 -196 3 -8 17 -32 31
-54 14 -22 39 -65 55 -95 17 -30 39 -68 49 -85 16 -27 333 -577 384 -665 27
-48 109 -190 124 -215 7 -11 15 -27 20 -35 4 -8 20 -37 36 -65 26 -43 140
-240 198 -343 11 -18 26 -43 33 -55 28 -43 77 -132 89 -159 6 -16 15 -28 19
-28 4 0 8 -4 8 -10 0 -5 20 -43 45 -83 25 -41 45 -80 45 -86 0 -6 4 -11 9 -11
5 0 11 -8 14 -17 4 -10 18 -38 33 -63 15 -25 38 -65 52 -90 14 -25 70 -121
124 -214 54 -93 98 -170 98 -172 0 -1 21 -38 46 -81 26 -43 55 -91 64 -108 41
-72 299 -521 365 -635 40 -69 82 -141 93 -160 49 -87 193 -337 202 -350 6 -8
13 -22 17 -30 4 -8 33 -59 65 -113 32 -54 58 -103 58 -108 0 -5 5 -9 10 -9 6
0 10 -5 10 -11 0 -6 16 -38 36 -70 19 -32 35 -62 35 -66 0 -4 6 -15 13 -23 8
-8 42 -64 76 -125 34 -60 70 -123 80 -140 9 -16 60 -104 112 -195 52 -91 147
-255 210 -365 108 -187 142 -246 284 -492 31 -54 66 -114 77 -133 73 -130 112
-197 166 -288 34 -57 61 -106 61 -108 0 -3 15 -28 33 -57 18 -29 41 -68 50
-87 10 -19 31 -56 47 -82 15 -25 39 -66 53 -90 51 -91 261 -455 284 -490 12
-21 23 -40 23 -43 0 -2 18 -34 40 -70 22 -36 40 -67 40 -70 0 -2 26 -48 59
-102 32 -54 69 -118 83 -143 14 -25 110 -191 213 -370 103 -179 197 -341 208
-360 11 -19 31 -55 45 -80 14 -25 42 -74 64 -109 21 -34 38 -65 38 -67 0 -2
25 -44 55 -95 30 -50 55 -93 55 -95 0 -5 197 -346 207 -359 4 -6 19 -31 33
-57 89 -165 395 -686 401 -682 6 3 150 251 281 484 14 25 50 88 80 140 30 52
136 237 235 410 100 173 189 329 199 347 11 18 66 115 124 215 58 101 110 192
117 203 7 11 15 27 19 35 9 18 450 789 464 810 5 8 28 49 51 90 23 41 73 128
110 192 38 64 69 120 69 124 0 4 6 15 14 23 7 9 27 41 43 71 17 30 57 100 88
155 106 184 127 220 155 270 15 28 97 169 180 315 84 146 164 285 178 310 14
25 85 149 157 275 73 127 143 248 155 269 12 22 92 161 177 310 86 149 165
287 175 306 17 30 154 269 575 1005 41 72 78 137 83 145 5 8 73 127 152 265
79 137 148 257 153 266 6 9 20 35 33 58 13 24 73 129 134 234 61 106 121 210
133 232 12 22 65 114 117 205 52 91 106 185 120 210 14 25 87 153 163 285 76
132 149 260 163 285 14 25 42 74 64 109 21 34 38 64 38 66 0 1 101 179 225
395 124 216 225 396 225 401 0 5 5 9 10 9 6 0 10 4 10 8 0 8 34 70 82 152 40
69 662 1156 683 1195 12 22 52 91 88 153 36 61 60 112 54 113 -28 3 -7400 23
-11604 33 l-1223 3 32 -56z m5378 -2136 c663 -3 1522 -8 1910 -10 388 -2 922
-5 1188 -6 265 -1 482 -3 482 -5 0 -2 -13 -26 -30 -54 -16 -28 -30 -53 -30
-55 0 -2 -30 -55 -66 -117 -36 -62 -81 -140 -99 -173 -18 -33 -48 -87 -67
-120 -43 -75 -254 -446 -284 -500 -66 -120 -105 -190 -113 -199 -4 -6 -25 -42
-45 -79 -43 -79 -40 -74 -181 -322 -60 -104 -122 -215 -138 -245 -17 -30 -50
-88 -74 -128 -24 -41 -43 -75 -43 -77 0 -2 -41 -74 -91 -161 -50 -88 -105
-184 -121 -214 -49 -88 -282 -500 -389 -687 -55 -95 -99 -175 -99 -177 0 -2
-20 -37 -44 -77 -24 -41 -93 -162 -153 -269 -61 -107 -121 -215 -135 -240 -14
-25 -92 -162 -173 -305 -80 -143 -153 -270 -161 -283 -15 -23 -17 -21 -90 104
-41 70 -74 129 -74 130 0 2 -18 33 -40 69 -22 36 -40 67 -40 69 0 2 -23 43
-51 92 -70 121 -88 152 -117 204 -14 25 -33 57 -43 72 -11 14 -19 28 -19 31 0
2 -55 101 -123 218 -68 118 -126 221 -130 229 -4 8 -15 29 -26 45 -19 31 -167
289 -206 360 -12 22 -43 75 -69 118 -25 43 -46 79 -46 81 0 4 -100 178 -110
191 -4 6 -20 33 -35 60 -29 54 -90 161 -105 185 -5 8 -35 60 -66 115 -77 136
-82 144 -154 270 -35 61 -98 171 -140 245 -42 74 -100 175 -128 224 -29 49
-52 91 -52 93 0 3 -8 17 -19 31 -10 15 -31 50 -45 77 -15 28 -35 64 -45 80
-10 17 -145 253 -300 525 -156 272 -290 506 -299 520 -9 14 -15 28 -14 33 1 4
-2 7 -8 7 -13 0 -13 27 0 32 5 2 85 2 177 1 93 -1 710 -5 1373 -8z"/>
</g>
</svg>
