<svg xmlns="http://www.w3.org/2000/svg" viewBox="0 0 512 512">
  <path d="M80.31934,209.21277l40.02374-89.89722L30.27472,79.21417c-.08612.19342-.16547.38806-.25024.58173l-.00732-.0033c-22.09753,49.6311.12512,107.75653,49.63361,130.01672L0,388.70721l90.06927,40.10138,39.88361-89.57916c22.09753-49.63104-.12512-107.75647-49.63354-130.01666Z"/>
  <path d="M342.21722,93.23938c-93.76428,0-169.77325,76.00897-169.77325,169.77319s76.00897,169.77325,169.77325,169.77325c93.7738,0,169.78278-76.00903,169.78278-169.77325s-76.00897-169.77319-169.78278-169.77319ZM342.21722,347.90399c-46.80066,0-84.88184-38.08118-84.88184-84.89142s38.08118-84.89136,84.88184-84.89136c46.81012,0,84.89142,38.08118,84.89142,84.89136s-38.0813,84.89142-84.89142,84.89142Z"/>
</svg>