<svg xmlns="http://www.w3.org/2000/svg" xmlns:xlink="http://www.w3.org/1999/xlink" x="0px" y="0px"
	 viewBox="0 0 218.7 208.4">
	<path d="M0.6,68.6L44.1,1.8c1.2-1.8,3.6-2.4,5.4-1.2l88,54l26.4-52.8c0.6-1.1,1.8-1.7,3.1-1.4c1.2,0.3,2.1,1.4,2.1,2.7v71l46,28.2
		c1.1,0.7,1.8,1.9,1.9,3.2s-0.6,2.6-1.6,3.4l-20.8,15.3l21.4,11.3c1.2,0.6,2,1.9,2.1,3.3s-0.5,2.7-1.7,3.5l-19.2,13.6l19,11.6
		c1.2,0.7,1.9,2,1.9,3.3s-0.6,2.6-1.8,3.4l-19.8,13.2l20.3,13.9c1.4,1,2.1,2.8,1.6,4.5c-0.5,1.7-2,2.8-3.8,2.8H64.8
		c-2.2,0-4-1.8-4-4v-92.6l-59-37.7c-0.9-0.6-1.5-1.5-1.7-2.5C-0.1,70.6,0.1,69.5,0.6,68.6z M192.5,190.5c-1.1-0.7-1.7-2-1.7-3.3
		c0-1.3,0.7-2.6,1.8-3.3l19.7-13.1l-18.9-11.6c-1.1-0.7-1.9-1.9-1.9-3.3c0-1.3,0.6-2.6,1.7-3.4l19.1-13.6l-21.3-11.3
		c-1.2-0.6-2-1.9-2.1-3.2c-0.1-1.4,0.5-2.7,1.6-3.5l20.9-15.3l-42.1-25.8v123.5h42.2L192.5,190.5z M64,107.9c1.1,0.7,1.8,2,1.8,3.4
		v92.1h18.3c0.1-1.9,1.6-3.4,3.5-3.4c1.9,0,3.4,1.5,3.5,3.4h14.2c0.1-1.9,1.6-3.4,3.5-3.4s3.4,1.5,3.5,3.4h14.2
		c0.1-1.9,1.6-3.4,3.5-3.4s3.4,1.5,3.5,3.4H148c0.1-1.9,1.6-3.4,3.5-3.4c1.9,0,3.4,1.5,3.5,3.4h9.1v-7.5c-0.6,0.4-1.2,0.6-2,0.6
		c-2,0-3.5-1.6-3.5-3.5s1.6-3.5,3.5-3.5c0.7,0,1.4,0.2,2,0.6v-15.4c-0.6,0.4-1.2,0.6-2,0.6c-2,0-3.5-1.6-3.5-3.5
		c0-2,1.6-3.5,3.5-3.5c0.7,0,1.4,0.2,2,0.6v-15.4c-0.6,0.4-1.2,0.6-2,0.6c-2,0-3.5-1.6-3.5-3.5c0-2,1.6-3.5,3.5-3.5
		c0.7,0,1.4,0.2,2,0.6V132c-0.6,0.4-1.2,0.6-2,0.6c-2,0-3.5-1.6-3.5-3.5c0-2,1.6-3.5,3.5-3.5c0.7,0,1.4,0.2,2,0.6V76.8L47.7,5.4
		L27.2,37l39.6,24.7L64.2,66L24.4,41.2l-19,29.3L64,107.9z"/>
	<path d="M127.5,88.8c-3.8,0-6.9-3.1-7-6.9c0-3.8,3.1-6.9,6.9-7c3.8,0,6.9,3,7,6.9C134.4,85.6,131.3,88.8,127.5,88.8z"/>
	<path d="M98.3,189.3c2,0,3.5,1.6,3.5,3.5s-1.6,3.5-3.5,3.5s-3.5-1.6-3.5-3.5S96.4,189.3,98.3,189.3z"/>
	<path d="M109,178.7c2,0,3.5,1.6,3.5,3.5c0,2-1.6,3.5-3.5,3.5s-3.5-1.6-3.5-3.5C105.4,180.3,107,178.7,109,178.7z"/>
	<path d="M119.6,168.1c2,0,3.5,1.6,3.5,3.5c0,2-1.6,3.5-3.5,3.5c-2,0-3.5-1.6-3.5-3.5C116.1,169.6,117.7,168.1,119.6,168.1z"/>
	<path d="M119.6,189.3c2,0,3.5,1.6,3.5,3.5s-1.6,3.5-3.5,3.5c-2,0-3.5-1.6-3.5-3.5S117.7,189.3,119.6,189.3z"/>
	<path d="M140.9,146.8c2,0,3.5,1.6,3.5,3.5c0,2-1.6,3.5-3.5,3.5c-2,0-3.5-1.6-3.5-3.5C137.4,148.4,138.9,146.8,140.9,146.8z"/>
	<path d="M140.9,168.1c2,0,3.5,1.6,3.5,3.5c0,2-1.6,3.5-3.5,3.5c-2,0-3.5-1.6-3.5-3.5C137.4,169.6,138.9,168.1,140.9,168.1z"/>
	<path d="M140.9,189.3c2,0,3.5,1.6,3.5,3.5s-1.6,3.5-3.5,3.5c-2,0-3.5-1.6-3.5-3.5S138.9,189.3,140.9,189.3z"/>
	<path d="M130.3,157.4c2,0,3.5,1.6,3.5,3.5c0,2-1.6,3.5-3.5,3.5s-3.5-1.6-3.5-3.5C126.7,159,128.3,157.4,130.3,157.4z"/>
	<path d="M130.3,178.7c2,0,3.5,1.6,3.5,3.5c0,2-1.6,3.5-3.5,3.5s-3.5-1.6-3.5-3.5C126.7,180.3,128.3,178.7,130.3,178.7z"/>
	<path d="M151.5,136.1c2,0,3.5,1.6,3.5,3.5s-1.6,3.5-3.5,3.5c-2,0-3.5-1.6-3.5-3.5S149.6,136.1,151.5,136.1z"/>
	<path d="M151.5,157.4c2,0,3.5,1.6,3.5,3.5c0,2-1.6,3.5-3.5,3.5c-2,0-3.5-1.6-3.5-3.5C148,159,149.6,157.4,151.5,157.4z"/>
	<path d="M151.5,178.7c2,0,3.5,1.6,3.5,3.5c0,2-1.6,3.5-3.5,3.5c-2,0-3.5-1.6-3.5-3.5C148,180.3,149.6,178.7,151.5,178.7z"/>
</svg>
